<svg width="80" height="38" viewBox="0 0 80 38" fill="none" xmlns="http://www.w3.org/2000/svg">
<path fill-rule="evenodd" clip-rule="evenodd" d="M41.6414 20.8453C41.6414 20.7138 41.5623 20.5563 41.3771 20.5563H37.2505V24.47H41.3771C41.5623 24.47 41.6414 24.3385 41.6414 24.2073V20.8453ZM41.6414 13.9113C41.6414 13.7798 41.5623 13.6225 41.3771 13.6225H37.2505V17.2996H41.3771C41.5623 17.2996 41.6414 17.1682 41.6414 17.0103V13.9113ZM32.6738 27.8317V10.1032H43.6783C45.1335 10.1032 46.0592 11.0223 46.0592 12.3353V16.2754C46.0592 17.4833 45.2656 18.639 43.6258 19.0332C45.2656 19.4269 46.1916 20.5302 46.1916 21.7122V25.573C46.1916 26.9648 45.2656 27.8317 43.8107 27.8317H32.6738ZM57.7535 16.953H62.7609V25.804C62.7609 26.9597 61.862 27.8264 60.7243 27.8264H51.7829C50.6454 27.8264 49.7195 26.9597 49.7195 25.804V12.0939C49.7195 11.0169 50.6454 10.0978 51.7829 10.0978H62.7609V13.9062H54.5603C54.4281 13.9062 54.2959 14.0374 54.2959 14.1953V23.7031C54.2959 23.8604 54.4281 23.9656 54.5603 23.9656H58.2641C58.4491 23.9656 58.5549 23.8604 58.5549 23.7031V20.7087H56.1478L57.7535 16.953ZM74.3228 16.953H79.3305V25.804C79.3305 26.9597 78.4313 27.8264 77.2938 27.8264H68.3525C67.2147 27.8264 66.2891 26.9597 66.2891 25.804V12.0939C66.2891 11.0169 67.2147 10.0978 68.3525 10.0978H79.3305V13.9062H71.1298C70.9977 13.9062 70.8652 14.0374 70.8652 14.1953V23.7031C70.8652 23.8604 70.9977 23.9656 71.1298 23.9656H74.8334C75.0186 23.9656 75.1245 23.8604 75.1245 23.7031V20.7087H72.7172L74.3228 16.953Z" fill="white"/>
<path fill-rule="evenodd" clip-rule="evenodd" d="M24.87 7.01L21.107 8.035L24.792 0L0.9 8.794L2.206 19.327L0 21.454L6.577 37.93L20.558 32.779L25.418 21.37L23.331 19.358L24.87 7.01Z" fill="white"/>
</svg>
