<svg width="79" height="62" viewBox="0 0 79 62" fill="none" xmlns="http://www.w3.org/2000/svg">
<path d="M18.4032 33.073C17.1912 36.156 15.9899 39.2816 14.7993 42.4496C13.6086 45.5964 12.4498 48.8282 11.3229 52.1451C12.8113 52.06 13.9275 51.9643 14.6717 51.858C15.4159 51.773 15.7242 51.8687 15.5966 52.1451C15.4478 52.5065 15.2245 52.8999 14.9268 53.3251C14.6292 53.7503 14.1508 54.1118 13.4917 54.4095C13.3003 54.5158 12.8751 54.6115 12.2159 54.6965C11.5781 54.7816 10.8126 54.856 9.91964 54.9198C9.04789 55.0048 8.11237 55.0792 7.11305 55.143C6.135 55.2068 5.19947 55.2599 4.30647 55.3025C3.43472 55.345 2.67992 55.3769 2.04206 55.3981C1.38294 55.4194 0.957701 55.4407 0.766343 55.4619C0.149745 55.5257 -0.0947678 55.3875 0.0328042 55.0473C0.160376 54.7071 0.596247 54.2606 1.34042 53.7078C1.46799 53.5802 1.7444 53.3995 2.16964 53.1656C2.57361 52.9318 3.254 52.7191 4.21079 52.5278C4.55098 51.6986 5.05064 50.476 5.70976 48.8601C6.39014 47.2229 7.15558 45.3519 8.00606 43.2469C8.8778 41.1207 9.82396 38.835 10.8445 36.3899C11.8651 33.9235 12.8963 31.4359 13.9382 28.927C14.98 26.418 16.0006 23.9623 16.9999 21.5597C18.0205 19.1571 18.956 16.9564 19.8065 14.9578C20.6782 12.9379 21.433 11.1944 22.0709 9.72737C22.73 8.26029 23.219 7.21845 23.5379 6.60185C23.7293 6.34671 24.1333 6.11283 24.7499 5.90021C25.3665 5.68759 26.0256 5.52812 26.7272 5.42181C27.4289 5.29424 28.0774 5.24108 28.6727 5.26235C29.2893 5.28361 29.6933 5.38992 29.8847 5.58128C29.991 5.6238 29.9803 5.81516 29.8528 6.15535C29.7465 6.49554 29.5657 6.95267 29.3106 7.52675C29.0554 8.07956 28.7471 8.72805 28.3857 9.47222C28.0455 10.1951 27.6947 10.9818 27.3332 11.8323C25.9299 15.1279 24.5266 18.381 23.1233 21.5916C21.7413 24.8021 20.3805 28.0871 19.041 31.4465C21.3161 31.4252 23.3572 31.0744 25.1645 30.394C26.993 29.7136 28.5983 28.7994 29.9803 27.6512C31.3836 26.5031 32.5849 25.1848 33.5842 23.6965C34.6048 22.2082 35.434 20.656 36.0719 19.0401C36.7098 17.403 37.1775 15.7658 37.4752 14.1286C37.7729 12.4702 37.9217 10.918 37.9217 9.47222C37.9217 8.38786 37.7303 7.39918 37.3476 6.50617C36.9862 5.59191 36.4652 4.81584 35.7849 4.17798C35.1045 3.51886 34.2859 3.00857 33.3291 2.64712C32.3936 2.28567 31.3517 2.10494 30.2036 2.10494C27.6521 2.10494 25.2495 2.55144 22.9958 3.44444C20.7633 4.33745 18.8178 5.59191 17.1593 7.20782C15.5009 8.80247 14.1933 10.7267 13.2365 12.9805C12.2797 15.2342 11.8013 17.7219 11.8013 20.4434C11.8013 20.8049 11.7163 21.1238 11.5462 21.4002C11.3761 21.6766 11.089 21.8148 10.6851 21.8148C10.4087 21.8148 10.0472 21.7085 9.60071 21.4959C9.1542 21.262 8.7077 20.9643 8.2612 20.6029C7.83596 20.2202 7.46387 19.7843 7.14494 19.2953C6.84728 18.785 6.69844 18.2534 6.69844 17.7006C6.69844 16.191 7.04927 14.7133 7.75091 13.2675C8.47382 11.8004 9.44124 10.4078 10.6532 9.08951C11.8864 7.77126 13.3216 6.55933 14.9587 5.4537C16.5959 4.34808 18.3288 3.39129 20.1573 2.58333C22.0071 1.77538 23.8994 1.14815 25.8342 0.701646C27.7903 0.233882 29.6827 0 31.5112 0C33.5949 0 35.4447 0.287037 37.0606 0.861111C38.6978 1.41392 40.0692 2.20062 41.1748 3.22119C42.3017 4.24177 43.1521 5.46433 43.7262 6.88889C44.3003 8.29218 44.5873 9.83368 44.5873 11.5134C44.5873 13.7246 44.1196 15.8721 43.184 17.9558C42.2485 20.0394 40.9728 21.9743 39.3569 23.7603C37.7622 25.5463 35.8912 27.1303 33.7437 28.5123C31.5962 29.8944 29.3106 30.9787 26.8867 31.7654C27.0568 34.2956 27.312 36.7407 27.6521 39.1008C27.9923 41.4609 28.4069 43.6828 28.896 45.7665C29.385 47.8289 29.9378 49.7212 30.5544 51.4434C31.1923 53.1656 31.8833 54.6433 32.6275 55.8765C33.3929 57.1097 34.2115 58.0665 35.0832 58.7469C35.955 59.4273 36.8799 59.7675 37.8579 59.7675C38.8997 59.7675 39.8034 59.4911 40.5688 58.9383C41.3342 58.3855 41.9934 57.7795 42.5462 57.1204C43.1203 56.4613 43.6093 55.8553 44.0133 55.3025C44.4385 54.7497 44.8212 54.4733 45.1614 54.4733C45.4591 54.4733 45.6398 54.5689 45.7036 54.7603C45.7886 54.9516 45.8312 55.143 45.8312 55.3344C45.8312 56.0147 45.6717 56.7483 45.3528 57.535C45.0338 58.3217 44.5342 59.0446 43.8538 59.7037C43.1734 60.3628 42.291 60.905 41.2067 61.3302C40.1436 61.7767 38.8572 62 37.3476 62C35.2427 62 33.3929 61.5854 31.7982 60.7562C30.2248 59.927 28.8428 58.8001 27.6521 57.3755C26.4827 55.9722 25.4834 54.3138 24.6542 52.4002C23.8462 50.5079 23.1765 48.488 22.6449 46.3405C22.1134 44.1931 21.6988 41.9818 21.4011 39.7068C21.1034 37.4318 20.8802 35.1992 20.7314 33.0093C20.4124 33.0518 20.0829 33.073 19.7427 33.073C19.4238 33.073 19.1048 33.073 18.7859 33.073H18.4032Z" fill="white"/>
<path d="M62.4037 8.84986C62.3202 9.10045 62.1615 9.30927 61.9276 9.47633C61.6937 9.62668 61.4348 9.71857 61.1508 9.75198C60.8668 9.8188 60.5828 9.86892 60.2988 9.90233C60.0315 9.91904 59.7725 9.9441 59.522 9.97751C58.5864 11.9321 57.6593 13.9535 56.7404 16.0417C55.8216 18.1133 54.9111 20.2098 54.009 22.3315C53.1069 24.4531 52.2131 26.5748 51.3277 28.6964C50.459 30.8181 49.6154 32.9063 48.7968 34.9611L58.0435 33.7332C58.9456 31.5615 59.8561 29.3563 60.7749 27.1177C61.7104 24.8624 62.6125 22.6573 63.4812 20.5022C64.3667 18.3304 65.2186 16.2422 66.0372 14.2375C66.8558 12.2161 67.6076 10.345 68.2925 8.62433C67.7245 8.69116 67.1565 8.73292 66.5885 8.74963C66.0372 8.74963 65.4943 8.74963 64.9597 8.74963C64.9096 8.74963 64.8595 8.72457 64.8094 8.67445C64.7759 8.62433 64.7425 8.57421 64.7091 8.5241C64.6757 8.47398 64.6674 8.41551 64.6841 8.34869C64.7008 8.28186 64.7258 8.22339 64.7592 8.17327L65.1101 7.82245C65.2103 7.60528 65.3105 7.42986 65.4108 7.29622C65.5277 7.14586 65.7031 7.04563 65.937 6.99551C66.8892 6.84516 67.8665 6.70316 68.8689 6.56951C69.8712 6.43586 70.8819 6.31892 71.901 6.21869C72.9201 6.10175 73.9224 6.00987 74.908 5.94304C75.9104 5.87622 76.871 5.85116 77.7898 5.86787C77.8566 5.86787 77.9569 5.90128 78.0905 5.9681C78.1239 6.01822 78.1323 6.07669 78.1156 6.14351C78.0989 6.21034 78.0738 6.26881 78.0404 6.31892L77.5392 7.2461C77.439 7.46328 77.2803 7.63033 77.0631 7.74727C76.8459 7.86422 76.612 7.93939 76.3615 7.9728C75.8937 8.02292 75.4176 8.06469 74.9331 8.0981C74.4486 8.13151 73.9475 8.17327 73.4296 8.22339C72.611 10.178 71.7256 12.2996 70.7733 14.5883C69.8378 16.877 68.8689 19.2409 67.8665 21.68C66.8809 24.119 65.8869 26.5915 64.8845 29.0974C63.8822 31.5865 62.9132 34.0172 61.9777 36.3895C61.0422 38.7617 60.1568 41.0337 59.3215 43.2055C58.4862 45.3605 57.7344 47.3151 57.0662 49.0692C57.6843 48.9857 58.244 48.9189 58.7451 48.8687C59.263 48.8353 59.6723 48.8186 59.973 48.8186C60.4742 48.8186 60.8501 48.8437 61.1007 48.8938C61.3512 48.9606 61.51 49.0442 61.5768 49.1444C61.6603 49.2613 61.6603 49.3866 61.5768 49.5203C61.51 49.6706 61.4097 49.8293 61.2761 49.9964C61.1257 50.1634 61.0088 50.3138 60.9252 50.4474C60.8584 50.5811 60.7582 50.698 60.6245 50.7983C60.4909 50.9152 60.2988 51.0154 60.0482 51.099C59.7976 51.1825 59.4301 51.2577 58.9456 51.3245C58.6282 51.3746 58.1688 51.4247 57.5674 51.4749C56.966 51.525 56.2977 51.5751 55.5627 51.6252C54.8276 51.6753 54.0591 51.7254 53.2573 51.7756C52.4721 51.8257 51.7287 51.8674 51.027 51.9009C50.3254 51.951 49.6989 51.9927 49.1476 52.0262C48.613 52.0596 48.2371 52.0846 48.02 52.1013C47.3517 52.1514 46.9842 52.1264 46.9174 52.0262C46.8506 51.9426 47.0343 51.6586 47.4687 51.1742C47.6524 50.9236 47.9364 50.7231 48.3207 50.5727C48.7216 50.4391 49.2395 50.3305 49.8743 50.247C49.9746 50.2136 50.1166 50.1802 50.3003 50.1467C50.5008 50.13 50.718 50.0966 50.9518 50.0465C51.8038 48.1922 52.7477 46.0789 53.7835 43.7066C54.836 41.3344 55.9302 38.7951 57.0662 36.0888L47.9699 37.0159C47.2515 38.8202 46.5749 40.5659 45.9401 42.2532C45.3053 43.9405 44.7039 45.5443 44.1359 47.0645C45.1549 46.9643 45.9401 46.9225 46.4914 46.9392C47.0427 46.9726 47.2766 47.1063 47.193 47.3402C47.1095 47.6242 46.9341 47.8664 46.6668 48.0669C46.3995 48.2673 46.032 48.4845 45.5642 48.7184C45.3971 48.8019 45.063 48.8771 44.5619 48.9439C44.0774 49.0275 43.501 49.1026 42.8328 49.1695C42.1813 49.2363 41.488 49.2947 40.7529 49.3449C40.0012 49.4117 39.2995 49.4618 38.648 49.4952C37.9965 49.5286 37.4285 49.5537 36.944 49.5704C36.4428 49.6038 36.117 49.6289 35.9667 49.6456C35.4822 49.6957 35.2149 49.5871 35.1648 49.3198C35.1147 49.0692 35.382 48.71 35.9667 48.2423C36.0669 48.142 36.2925 48.0585 36.6433 47.9917C36.9941 47.9249 37.5537 47.8413 38.3222 47.7411C38.8401 46.3712 39.4582 44.8259 40.1766 43.1052C40.8782 41.3845 41.63 39.5636 42.4319 37.6424L39.2494 37.9431C39.1659 37.9431 39.099 37.9348 39.0489 37.9181C38.9821 37.8846 38.9487 37.8262 38.9487 37.7426C38.9153 37.6925 38.932 37.6257 38.9988 37.5422C39.0489 37.4419 39.1157 37.3501 39.1993 37.2665L39.5501 36.7654C39.8341 36.4479 40.1097 36.2558 40.377 36.189C40.6276 36.1055 40.9367 36.0219 41.3042 35.9384L43.2588 35.6878C44.1776 33.5161 45.1299 31.2942 46.1155 29.0222C47.1179 26.7335 48.0951 24.4949 49.0474 22.3064C50.0163 20.1013 50.9518 17.988 51.854 15.9666C52.7561 13.9451 53.583 12.1159 54.3348 10.4787C53.7668 10.5288 53.1821 10.5706 52.5807 10.604C51.996 10.6207 51.3862 10.6457 50.7514 10.6792C50.6846 10.6792 50.6177 10.6457 50.5509 10.5789C50.5509 10.4787 50.5843 10.3952 50.6511 10.3283L50.9518 9.92739C51.0521 9.69351 51.1523 9.52645 51.2526 9.42621C51.3695 9.30927 51.5449 9.2341 51.7788 9.20068C52.6475 9.06704 53.4828 8.92504 54.2847 8.77469C55.1033 8.62433 55.9218 8.48233 56.7404 8.34869C57.5757 8.21504 58.4194 8.0981 59.2714 7.99786C60.1401 7.88092 61.0589 7.80575 62.0278 7.77233C62.245 7.72222 62.4204 7.78904 62.5541 7.9728C62.6042 8.05633 62.6376 8.14822 62.6543 8.24845C62.671 8.34869 62.6376 8.44057 62.5541 8.5241L62.4037 8.84986Z" fill="white"/>
<path d="M18.4032 33.073C17.1912 36.156 15.9899 39.2816 14.7993 42.4496C13.6086 45.5964 12.4498 48.8282 11.3229 52.1451C12.8113 52.06 13.9275 51.9643 14.6717 51.858C15.4159 51.773 15.7242 51.8687 15.5966 52.1451C15.4478 52.5065 15.2245 52.8999 14.9268 53.3251C14.6292 53.7503 14.1508 54.1118 13.4917 54.4095C13.3003 54.5158 12.8751 54.6115 12.2159 54.6965C11.5781 54.7816 10.8126 54.856 9.91964 54.9198C9.04789 55.0048 8.11237 55.0792 7.11305 55.143C6.135 55.2068 5.19947 55.2599 4.30647 55.3025C3.43472 55.345 2.67992 55.3769 2.04206 55.3981C1.38294 55.4194 0.957701 55.4407 0.766343 55.4619C0.149745 55.5257 -0.0947678 55.3875 0.0328042 55.0473C0.160376 54.7071 0.596247 54.2606 1.34042 53.7078C1.46799 53.5802 1.7444 53.3995 2.16964 53.1656C2.57361 52.9318 3.254 52.7191 4.21079 52.5278C4.55098 51.6986 5.05064 50.476 5.70976 48.8601C6.39014 47.2229 7.15558 45.3519 8.00606 43.2469C8.8778 41.1207 9.82396 38.835 10.8445 36.3899C11.8651 33.9235 12.8963 31.4359 13.9382 28.927C14.98 26.418 16.0006 23.9623 16.9999 21.5597C18.0205 19.1571 18.956 16.9564 19.8065 14.9578C20.6782 12.9379 21.433 11.1944 22.0709 9.72737C22.73 8.26029 23.219 7.21845 23.5379 6.60185C23.7293 6.34671 24.1333 6.11283 24.7499 5.90021C25.3665 5.68759 26.0256 5.52812 26.7272 5.42181C27.4289 5.29424 28.0774 5.24108 28.6727 5.26235C29.2893 5.28361 29.6933 5.38992 29.8847 5.58128C29.991 5.6238 29.9803 5.81516 29.8528 6.15535C29.7465 6.49554 29.5657 6.95267 29.3106 7.52675C29.0554 8.07956 28.7471 8.72805 28.3857 9.47222C28.0455 10.1951 27.6947 10.9818 27.3332 11.8323C25.9299 15.1279 24.5266 18.381 23.1233 21.5916C21.7413 24.8021 20.3805 28.0871 19.041 31.4465C21.3161 31.4252 23.3572 31.0744 25.1645 30.394C26.993 29.7136 28.5983 28.7994 29.9803 27.6512C31.3836 26.5031 32.5849 25.1848 33.5842 23.6965C34.6048 22.2082 35.434 20.656 36.0719 19.0401C36.7098 17.403 37.1775 15.7658 37.4752 14.1286C37.7729 12.4702 37.9217 10.918 37.9217 9.47222C37.9217 8.38786 37.7303 7.39918 37.3476 6.50617C36.9862 5.59191 36.4652 4.81584 35.7849 4.17798C35.1045 3.51886 34.2859 3.00857 33.3291 2.64712C32.3936 2.28567 31.3517 2.10494 30.2036 2.10494C27.6521 2.10494 25.2495 2.55144 22.9958 3.44444C20.7633 4.33745 18.8178 5.59191 17.1593 7.20782C15.5009 8.80247 14.1933 10.7267 13.2365 12.9805C12.2797 15.2342 11.8013 17.7219 11.8013 20.4434C11.8013 20.8049 11.7163 21.1238 11.5462 21.4002C11.3761 21.6766 11.089 21.8148 10.6851 21.8148C10.4087 21.8148 10.0472 21.7085 9.60071 21.4959C9.1542 21.262 8.7077 20.9643 8.2612 20.6029C7.83596 20.2202 7.46387 19.7843 7.14494 19.2953C6.84728 18.785 6.69844 18.2534 6.69844 17.7006C6.69844 16.191 7.04927 14.7133 7.75091 13.2675C8.47382 11.8004 9.44124 10.4078 10.6532 9.08951C11.8864 7.77126 13.3216 6.55933 14.9587 5.4537C16.5959 4.34808 18.3288 3.39129 20.1573 2.58333C22.0071 1.77538 23.8994 1.14815 25.8342 0.701646C27.7903 0.233882 29.6827 0 31.5112 0C33.5949 0 35.4447 0.287037 37.0606 0.861111C38.6978 1.41392 40.0692 2.20062 41.1748 3.22119C42.3017 4.24177 43.1521 5.46433 43.7262 6.88889C44.3003 8.29218 44.5873 9.83368 44.5873 11.5134C44.5873 13.7246 44.1196 15.8721 43.184 17.9558C42.2485 20.0394 40.9728 21.9743 39.3569 23.7603C37.7622 25.5463 35.8912 27.1303 33.7437 28.5123C31.5962 29.8944 29.3106 30.9787 26.8867 31.7654C27.0568 34.2956 27.312 36.7407 27.6521 39.1008C27.9923 41.4609 28.4069 43.6828 28.896 45.7665C29.385 47.8289 29.9378 49.7212 30.5544 51.4434C31.1923 53.1656 31.8833 54.6433 32.6275 55.8765C33.3929 57.1097 34.2115 58.0665 35.0832 58.7469C35.955 59.4273 36.8799 59.7675 37.8579 59.7675C38.8997 59.7675 39.8034 59.4911 40.5688 58.9383C41.3342 58.3855 41.9934 57.7795 42.5462 57.1204C43.1203 56.4613 43.6093 55.8553 44.0133 55.3025C44.4385 54.7497 44.8212 54.4733 45.1614 54.4733C45.4591 54.4733 45.6398 54.5689 45.7036 54.7603C45.7886 54.9516 45.8312 55.143 45.8312 55.3344C45.8312 56.0147 45.6717 56.7483 45.3528 57.535C45.0338 58.3217 44.5342 59.0446 43.8538 59.7037C43.1734 60.3628 42.291 60.905 41.2067 61.3302C40.1436 61.7767 38.8572 62 37.3476 62C35.2427 62 33.3929 61.5854 31.7982 60.7562C30.2248 59.927 28.8428 58.8001 27.6521 57.3755C26.4827 55.9722 25.4834 54.3138 24.6542 52.4002C23.8462 50.5079 23.1765 48.488 22.6449 46.3405C22.1134 44.1931 21.6988 41.9818 21.4011 39.7068C21.1034 37.4318 20.8802 35.1992 20.7314 33.0093C20.4124 33.0518 20.0829 33.073 19.7427 33.073C19.4238 33.073 19.1048 33.073 18.7859 33.073H18.4032Z" fill="white"/>
<path d="M62.4037 8.84986C62.3202 9.10045 62.1615 9.30927 61.9276 9.47633C61.6937 9.62668 61.4348 9.71857 61.1508 9.75198C60.8668 9.8188 60.5828 9.86892 60.2988 9.90233C60.0315 9.91904 59.7725 9.9441 59.522 9.97751C58.5864 11.9321 57.6593 13.9535 56.7404 16.0417C55.8216 18.1133 54.9111 20.2098 54.009 22.3315C53.1069 24.4531 52.2131 26.5748 51.3277 28.6964C50.459 30.8181 49.6154 32.9063 48.7968 34.9611L58.0435 33.7332C58.9456 31.5615 59.8561 29.3563 60.7749 27.1177C61.7104 24.8624 62.6125 22.6573 63.4812 20.5022C64.3667 18.3304 65.2186 16.2422 66.0372 14.2375C66.8558 12.2161 67.6076 10.345 68.2925 8.62433C67.7245 8.69116 67.1565 8.73292 66.5885 8.74963C66.0372 8.74963 65.4943 8.74963 64.9597 8.74963C64.9096 8.74963 64.8595 8.72457 64.8094 8.67445C64.7759 8.62433 64.7425 8.57421 64.7091 8.5241C64.6757 8.47398 64.6674 8.41551 64.6841 8.34869C64.7008 8.28186 64.7258 8.22339 64.7592 8.17327L65.1101 7.82245C65.2103 7.60528 65.3105 7.42986 65.4108 7.29622C65.5277 7.14586 65.7031 7.04563 65.937 6.99551C66.8892 6.84516 67.8665 6.70316 68.8689 6.56951C69.8712 6.43586 70.8819 6.31892 71.901 6.21869C72.9201 6.10175 73.9224 6.00987 74.908 5.94304C75.9104 5.87622 76.871 5.85116 77.7898 5.86787C77.8566 5.86787 77.9569 5.90128 78.0905 5.9681C78.1239 6.01822 78.1323 6.07669 78.1156 6.14351C78.0989 6.21034 78.0738 6.26881 78.0404 6.31892L77.5392 7.2461C77.439 7.46328 77.2803 7.63033 77.0631 7.74727C76.8459 7.86422 76.612 7.93939 76.3615 7.9728C75.8937 8.02292 75.4176 8.06469 74.9331 8.0981C74.4486 8.13151 73.9475 8.17327 73.4296 8.22339C72.611 10.178 71.7256 12.2996 70.7733 14.5883C69.8378 16.877 68.8689 19.2409 67.8665 21.68C66.8809 24.119 65.8869 26.5915 64.8845 29.0974C63.8822 31.5865 62.9132 34.0172 61.9777 36.3895C61.0422 38.7617 60.1568 41.0337 59.3215 43.2055C58.4862 45.3605 57.7344 47.3151 57.0662 49.0692C57.6843 48.9857 58.244 48.9189 58.7451 48.8687C59.263 48.8353 59.6723 48.8186 59.973 48.8186C60.4742 48.8186 60.8501 48.8437 61.1007 48.8938C61.3512 48.9606 61.51 49.0442 61.5768 49.1444C61.6603 49.2613 61.6603 49.3866 61.5768 49.5203C61.51 49.6706 61.4097 49.8293 61.2761 49.9964C61.1257 50.1634 61.0088 50.3138 60.9252 50.4474C60.8584 50.5811 60.7582 50.698 60.6245 50.7983C60.4909 50.9152 60.2988 51.0154 60.0482 51.099C59.7976 51.1825 59.4301 51.2577 58.9456 51.3245C58.6282 51.3746 58.1688 51.4247 57.5674 51.4749C56.966 51.525 56.2977 51.5751 55.5627 51.6252C54.8276 51.6753 54.0591 51.7254 53.2573 51.7756C52.4721 51.8257 51.7287 51.8674 51.027 51.9009C50.3254 51.951 49.6989 51.9927 49.1476 52.0262C48.613 52.0596 48.2371 52.0846 48.02 52.1013C47.3517 52.1514 46.9842 52.1264 46.9174 52.0262C46.8506 51.9426 47.0343 51.6586 47.4687 51.1742C47.6524 50.9236 47.9364 50.7231 48.3207 50.5727C48.7216 50.4391 49.2395 50.3305 49.8743 50.247C49.9746 50.2136 50.1166 50.1802 50.3003 50.1467C50.5008 50.13 50.718 50.0966 50.9518 50.0465C51.8038 48.1922 52.7477 46.0789 53.7835 43.7066C54.836 41.3344 55.9302 38.7951 57.0662 36.0888L47.9699 37.0159C47.2515 38.8202 46.5749 40.5659 45.9401 42.2532C45.3053 43.9405 44.7039 45.5443 44.1359 47.0645C45.1549 46.9643 45.9401 46.9225 46.4914 46.9392C47.0427 46.9726 47.2766 47.1063 47.193 47.3402C47.1095 47.6242 46.9341 47.8664 46.6668 48.0669C46.3995 48.2673 46.032 48.4845 45.5642 48.7184C45.3971 48.8019 45.063 48.8771 44.5619 48.9439C44.0774 49.0275 43.501 49.1026 42.8328 49.1695C42.1813 49.2363 41.488 49.2947 40.7529 49.3449C40.0012 49.4117 39.2995 49.4618 38.648 49.4952C37.9965 49.5286 37.4285 49.5537 36.944 49.5704C36.4428 49.6038 36.117 49.6289 35.9667 49.6456C35.4822 49.6957 35.2149 49.5871 35.1648 49.3198C35.1147 49.0692 35.382 48.71 35.9667 48.2423C36.0669 48.142 36.2925 48.0585 36.6433 47.9917C36.9941 47.9249 37.5537 47.8413 38.3222 47.7411C38.8401 46.3712 39.4582 44.8259 40.1766 43.1052C40.8782 41.3845 41.63 39.5636 42.4319 37.6424L39.2494 37.9431C39.1659 37.9431 39.099 37.9348 39.0489 37.9181C38.9821 37.8846 38.9487 37.8262 38.9487 37.7426C38.9153 37.6925 38.932 37.6257 38.9988 37.5422C39.0489 37.4419 39.1157 37.3501 39.1993 37.2665L39.5501 36.7654C39.8341 36.4479 40.1097 36.2558 40.377 36.189C40.6276 36.1055 40.9367 36.0219 41.3042 35.9384L43.2588 35.6878C44.1776 33.5161 45.1299 31.2942 46.1155 29.0222C47.1179 26.7335 48.0951 24.4949 49.0474 22.3064C50.0163 20.1013 50.9518 17.988 51.854 15.9666C52.7561 13.9451 53.583 12.1159 54.3348 10.4787C53.7668 10.5288 53.1821 10.5706 52.5807 10.604C51.996 10.6207 51.3862 10.6457 50.7514 10.6792C50.6846 10.6792 50.6177 10.6457 50.5509 10.5789C50.5509 10.4787 50.5843 10.3952 50.6511 10.3283L50.9518 9.92739C51.0521 9.69351 51.1523 9.52645 51.2526 9.42621C51.3695 9.30927 51.5449 9.2341 51.7788 9.20068C52.6475 9.06704 53.4828 8.92504 54.2847 8.77469C55.1033 8.62433 55.9218 8.48233 56.7404 8.34869C57.5757 8.21504 58.4194 8.0981 59.2714 7.99786C60.1401 7.88092 61.0589 7.80575 62.0278 7.77233C62.245 7.72222 62.4204 7.78904 62.5541 7.9728C62.6042 8.05633 62.6376 8.14822 62.6543 8.24845C62.671 8.34869 62.6376 8.44057 62.5541 8.5241L62.4037 8.84986Z" fill="white"/>
</svg>
